<svg xmlns="http://www.w3.org/2000/svg" style="display:none">

  <symbol id="icon-heart" viewBox="0 0 24 24" fill="none">
    <path d="M12 21C12 21 3 14.5 3 8.5a4.5 4.5 0 0 1 9-1 4.5 4.5 0 0 1 9 1C21 14.5 12 21 12 21z"
          stroke="currentColor" stroke-width="1.8" stroke-linejoin="round"/>
  </symbol>

  <symbol id="icon-heart-filled" viewBox="0 0 24 24">
    <path d="M12 21C12 21 3 14.5 3 8.5a4.5 4.5 0 0 1 9-1 4.5 4.5 0 0 1 9 1C21 14.5 12 21 12 21z"
          fill="currentColor"/>
  </symbol>

  <symbol id="icon-search" viewBox="0 0 24 24" fill="none">
    <circle cx="11" cy="11" r="7" stroke="currentColor" stroke-width="1.8"/>
    <line x1="16.5" y1="16.5" x2="21" y2="21" stroke="currentColor" stroke-width="1.8" stroke-linecap="round"/>
  </symbol>

  <symbol id="icon-close" viewBox="0 0 24 24" fill="none">
    <line x1="4" y1="4" x2="20" y2="20" stroke="currentColor" stroke-width="1.8" stroke-linecap="round"/>
    <line x1="20" y1="4" x2="4" y2="20" stroke="currentColor" stroke-width="1.8" stroke-linecap="round"/>
  </symbol>

  <symbol id="icon-eye" viewBox="0 0 24 24" fill="none">
    <path d="M1 12S5 5 12 5s11 7 11 7-4 7-11 7S1 12 1 12z" stroke="currentColor" stroke-width="1.8"/>
    <circle cx="12" cy="12" r="3" stroke="currentColor" stroke-width="1.8"/>
  </symbol>

  <symbol id="icon-eye-off" viewBox="0 0 24 24" fill="none">
    <path d="M17.94 17.94A10.07 10.07 0 0 1 12 20C5 20 1 12 1 12a18.45 18.45 0 0 1 5.06-5.94M9.9 4.24A9.12 9.12 0 0 1 12 4c7 0 11 8 11 8a18.5 18.5 0 0 1-2.16 3.19M1 1l22 22"
          stroke="currentColor" stroke-width="1.8" stroke-linecap="round"/>
  </symbol>

  <symbol id="icon-trash" viewBox="0 0 24 24" fill="none">
    <polyline points="3 6 5 6 21 6" stroke="currentColor" stroke-width="1.8" stroke-linecap="round"/>
    <path d="M19 6l-1 14H6L5 6" stroke="currentColor" stroke-width="1.8" stroke-linejoin="round"/>
    <path d="M10 11v6M14 11v6" stroke="currentColor" stroke-width="1.8" stroke-linecap="round"/>
    <path d="M9 6V4h6v2" stroke="currentColor" stroke-width="1.8" stroke-linejoin="round"/>
  </symbol>

  <symbol id="icon-arrow-left" viewBox="0 0 24 24" fill="none">
    <polyline points="15 18 9 12 15 6" stroke="currentColor" stroke-width="1.8" stroke-linecap="round" stroke-linejoin="round"/>
  </symbol>

  <symbol id="icon-arrow-right" viewBox="0 0 24 24" fill="none">
    <polyline points="9 18 15 12 9 6" stroke="currentColor" stroke-width="1.8" stroke-linecap="round" stroke-linejoin="round"/>
  </symbol>

  <symbol id="icon-arrow-first" viewBox="0 0 24 24" fill="none">
    <polyline points="11 18 5 12 11 6" stroke="currentColor" stroke-width="1.8" stroke-linecap="round" stroke-linejoin="round"/>
    <polyline points="19 18 13 12 19 6" stroke="currentColor" stroke-width="1.8" stroke-linecap="round" stroke-linejoin="round"/>
  </symbol>

  <symbol id="icon-arrow-last" viewBox="0 0 24 24" fill="none">
    <polyline points="5 18 11 12 5 6" stroke="currentColor" stroke-width="1.8" stroke-linecap="round" stroke-linejoin="round"/>
    <polyline points="13 18 19 12 13 6" stroke="currentColor" stroke-width="1.8" stroke-linecap="round" stroke-linejoin="round"/>
  </symbol>

  <symbol id="icon-edit" viewBox="0 0 24 24" fill="none">
    <path d="M11 4H4a2 2 0 0 0-2 2v14a2 2 0 0 0 2 2h14a2 2 0 0 0 2-2v-7" stroke="currentColor" stroke-width="1.8" stroke-linecap="round" stroke-linejoin="round"/>
    <path d="M18.5 2.5a2.121 2.121 0 0 1 3 3L12 15l-4 1 1-4 9.5-9.5z" stroke="currentColor" stroke-width="1.8" stroke-linecap="round" stroke-linejoin="round"/>
  </symbol>

  <symbol id="icon-logout" viewBox="0 0 24 24" fill="none">
    <path d="M9 21H5a2 2 0 0 1-2-2V5a2 2 0 0 1 2-2h4" stroke="currentColor" stroke-width="1.8" stroke-linecap="round" stroke-linejoin="round"/>
    <polyline points="16 17 21 12 16 7" stroke="currentColor" stroke-width="1.8" stroke-linecap="round" stroke-linejoin="round"/>
    <line x1="21" y1="12" x2="9" y2="12" stroke="currentColor" stroke-width="1.8" stroke-linecap="round"/>
  </symbol>

  <symbol id="icon-plus" viewBox="0 0 24 24" fill="none">
    <line x1="12" y1="5" x2="12" y2="19" stroke="currentColor" stroke-width="1.8" stroke-linecap="round"/>
    <line x1="5" y1="12" x2="19" y2="12" stroke="currentColor" stroke-width="1.8" stroke-linecap="round"/>
  </symbol>

  <symbol id="icon-check" viewBox="0 0 24 24" fill="none">
    <polyline points="20 6 9 17 4 12" stroke="currentColor" stroke-width="1.8" stroke-linecap="round" stroke-linejoin="round"/>
  </symbol>

  <symbol id="icon-cross-small" viewBox="0 0 24 24" fill="none">
    <line x1="6" y1="6" x2="18" y2="18" stroke="currentColor" stroke-width="1.8" stroke-linecap="round"/>
    <line x1="18" y1="6" x2="6" y2="18" stroke="currentColor" stroke-width="1.8" stroke-linecap="round"/>
  </symbol>

</svg>
