<svg xmlns="http://www.w3.org/2000/svg" style="display:none">

  <symbol id="icon-heart" viewBox="0 0 24 24" fill="none">
    <path d="M12 21C12 21 3 14.5 3 8.5a4.5 4.5 0 0 1 9-1 4.5 4.5 0 0 1 9 1C21 14.5 12 21 12 21z"
          stroke="currentColor" stroke-width="1.8" stroke-linejoin="round"/>
  </symbol>

  <symbol id="icon-heart-filled" viewBox="0 0 24 24">
    <path d="M12 21C12 21 3 14.5 3 8.5a4.5 4.5 0 0 1 9-1 4.5 4.5 0 0 1 9 1C21 14.5 12 21 12 21z"
          fill="currentColor"/>
  </symbol>

  <symbol id="icon-search" viewBox="0 0 24 24" fill="none">
    <circle cx="11" cy="11" r="7" stroke="currentColor" stroke-width="1.8"/>
    <line x1="16.5" y1="16.5" x2="21" y2="21" stroke="currentColor" stroke-width="1.8" stroke-linecap="round"/>
  </symbol>

  <symbol id="icon-close" viewBox="0 0 24 24" fill="none">
    <line x1="4" y1="4" x2="20" y2="20" stroke="currentColor" stroke-width="1.8" stroke-linecap="round"/>
    <line x1="20" y1="4" x2="4" y2="20" stroke="currentColor" stroke-width="1.8" stroke-linecap="round"/>
  </symbol>

  <symbol id="icon-eye" viewBox="0 0 24 24" fill="none">
    <path d="M1 12S5 5 12 5s11 7 11 7-4 7-11 7S1 12 1 12z" stroke="currentColor" stroke-width="1.8"/>
    <circle cx="12" cy="12" r="3" stroke="currentColor" stroke-width="1.8"/>
  </symbol>

  <symbol id="icon-eye-off" viewBox="0 0 24 24" fill="none">
    <path d="M17.94 17.94A10.07 10.07 0 0 1 12 20C5 20 1 12 1 12a18.45 18.45 0 0 1 5.06-5.94M9.9 4.24A9.12 9.12 0 0 1 12 4c7 0 11 8 11 8a18.5 18.5 0 0 1-2.16 3.19M1 1l22 22"
          stroke="currentColor" stroke-width="1.8" stroke-linecap="round"/>
  </symbol>

  <symbol id="icon-trash" viewBox="0 0 24 24" fill="none">
    <polyline points="3 6 5 6 21 6" stroke="currentColor" stroke-width="1.8" stroke-linecap="round"/>
    <path d="M19 6l-1 14H6L5 6" stroke="currentColor" stroke-width="1.8" stroke-linejoin="round"/>
    <path d="M10 11v6M14 11v6" stroke="currentColor" stroke-width="1.8" stroke-linecap="round"/>
    <path d="M9 6V4h6v2" stroke="currentColor" stroke-width="1.8" stroke-linejoin="round"/>
  </symbol>

  <symbol id="icon-arrow-left" viewBox="0 0 24 24" fill="none">
    <polyline points="15 18 9 12 15 6" stroke="currentColor" stroke-width="1.8" stroke-linecap="round" stroke-linejoin="round"/>
  </symbol>

  <symbol id="icon-arrow-right" viewBox="0 0 24 24" fill="none">
    <polyline points="9 18 15 12 9 6" stroke="currentColor" stroke-width="1.8" stroke-linecap="round" stroke-linejoin="round"/>
  </symbol>

  <symbol id="icon-arrow-first" viewBox="0 0 24 24" fill="none">
    <polyline points="11 18 5 12 11 6" stroke="currentColor" stroke-width="1.8" stroke-linecap="round" stroke-linejoin="round"/>
    <polyline points="19 18 13 12 19 6" stroke="currentColor" stroke-width="1.8" stroke-linecap="round" stroke-linejoin="round"/>
  </symbol>

  <symbol id="icon-arrow-last" viewBox="0 0 24 24" fill="none">
    <polyline points="5 18 11 12 5 6" stroke="currentColor" stroke-width="1.8" stroke-linecap="round" stroke-linejoin="round"/>
    <polyline points="13 18 19 12 13 6" stroke="currentColor" stroke-width="1.8" stroke-linecap="round" stroke-linejoin="round"/>
  </symbol>

  <symbol id="icon-edit" viewBox="0 0 24 24" fill="none">
    <path d="M11 4H4a2 2 0 0 0-2 2v14a2 2 0 0 0 2 2h14a2 2 0 0 0 2-2v-7" stroke="currentColor" stroke-width="1.8" stroke-linecap="round" stroke-linejoin="round"/>
    <path d="M18.5 2.5a2.121 2.121 0 0 1 3 3L12 15l-4 1 1-4 9.5-9.5z" stroke="currentColor" stroke-width="1.8" stroke-linecap="round" stroke-linejoin="round"/>
  </symbol>

  <symbol id="icon-logout" viewBox="0 0 24 24" fill="none">
    <path d="M9 21H5a2 2 0 0 1-2-2V5a2 2 0 0 1 2-2h4" stroke="currentColor" stroke-width="1.8" stroke-linecap="round" stroke-linejoin="round"/>
    <polyline points="16 17 21 12 16 7" stroke="currentColor" stroke-width="1.8" stroke-linecap="round" stroke-linejoin="round"/>
    <line x1="21" y1="12" x2="9" y2="12" stroke="currentColor" stroke-width="1.8" stroke-linecap="round"/>
  </symbol>

  <symbol id="icon-plus" viewBox="0 0 24 24" fill="none">
    <line x1="12" y1="5" x2="12" y2="19" stroke="currentColor" stroke-width="1.8" stroke-linecap="round"/>
    <line x1="5" y1="12" x2="19" y2="12" stroke="currentColor" stroke-width="1.8" stroke-linecap="round"/>
  </symbol>

  <symbol id="icon-check" viewBox="0 0 24 24" fill="none">
    <polyline points="20 6 9 17 4 12" stroke="currentColor" stroke-width="1.8" stroke-linecap="round" stroke-linejoin="round"/>
  </symbol>

  <symbol id="icon-cross-small" viewBox="0 0 24 24" fill="none">
    <line x1="6" y1="6" x2="18" y2="18" stroke="currentColor" stroke-width="1.8" stroke-linecap="round"/>
    <line x1="18" y1="6" x2="6" y2="18" stroke="currentColor" stroke-width="1.8" stroke-linecap="round"/>
  </symbol>

  <symbol id="icon-phone" viewBox="0 0 24 24" fill="none">
    <path d="M22 16.92v3a2 2 0 0 1-2.18 2 19.79 19.79 0 0 1-8.63-3.07 19.5 19.5 0 0 1-6-6 19.79 19.79 0 0 1-3.07-8.67A2 2 0 0 1 4.11 2h3a2 2 0 0 1 2 1.72c.127.86.361 1.71.7 2.81a2 2 0 0 1-.45 2.11L8.09 9.91a16 16 0 0 0 6 6l1.27-1.27a2 2 0 0 1 2.11-.45c1.09.339 1.95.573 2.81.7A2 2 0 0 1 22 16.92z"
          stroke="currentColor" stroke-width="1.8" stroke-linecap="round" stroke-linejoin="round"/>
  </symbol>

  <symbol id="icon-mail" viewBox="0 0 24 24" fill="none">
    <rect x="3" y="5" width="18" height="14" rx="2" stroke="currentColor" stroke-width="1.8"/>
    <path d="M3 7l9 6 9-6" stroke="currentColor" stroke-width="1.8" stroke-linecap="round" stroke-linejoin="round"/>
  </symbol>

  <symbol id="icon-link-external" viewBox="0 0 24 24" fill="none">
    <path d="M18 13v6a2 2 0 0 1-2 2H5a2 2 0 0 1-2-2V8a2 2 0 0 1 2-2h6" stroke="currentColor" stroke-width="1.8" stroke-linecap="round" stroke-linejoin="round"/>
    <path d="M15 3h6v6M10 14 21 3" stroke="currentColor" stroke-width="1.8" stroke-linecap="round" stroke-linejoin="round"/>
  </symbol>

  <symbol id="icon-paw" viewBox="0 0 44 44" fill="none">
    <path d="M17.1875 6.875C15.7162 6.875 14.4348 7.711 13.6208 8.85225C12.8068 9.9935 12.375 11.4675 12.375 13.0625C12.375 14.6575 12.8068 16.1329 13.6208 17.2741C14.4348 18.4154 15.7162 19.25 17.1875 19.25C18.6588 19.25 19.9402 18.414 20.7542 17.2728C21.5683 16.1315 22 14.6575 22 13.0625C22 11.4675 21.5683 9.99213 20.7542 8.85087C19.9402 7.70962 18.6588 6.875 17.1875 6.875ZM22 13.0625C22 14.6575 22.4317 16.1329 23.2458 17.2741C24.0597 18.4154 25.3426 19.25 26.8125 19.25C28.2838 19.25 29.5653 18.414 30.3792 17.2728C31.1933 16.1315 31.625 14.6575 31.625 13.0625C31.625 11.4675 31.1933 9.99213 30.3792 8.85087C29.5653 7.70962 28.2838 6.875 26.8125 6.875C25.3412 6.875 24.0597 7.711 23.2458 8.85225C22.4317 9.9935 22 11.4675 22 13.0625ZM17.1875 9.625C17.6165 9.625 18.0895 9.8395 18.5213 10.4418C18.9475 11.0426 19.25 11.9996 19.25 13.0625C19.25 14.1254 18.9475 15.0838 18.5213 15.6833C18.0895 16.2855 17.6165 16.5 17.1875 16.5C16.7585 16.5 16.2855 16.2855 15.8537 15.6833C15.4275 15.0824 15.125 14.1254 15.125 13.0625C15.125 11.9996 15.4275 11.0413 15.8537 10.4418C16.2855 9.8395 16.7585 9.625 17.1875 9.625ZM26.8125 9.625C27.2415 9.625 27.7145 9.8395 28.1462 10.4418C28.5725 11.0426 28.875 11.9996 28.875 13.0625C28.875 14.1254 28.5725 15.0838 28.1462 15.6833C27.7145 16.2855 27.2415 16.5 26.8125 16.5C26.3835 16.5 25.9105 16.2855 25.4788 15.6833C25.0525 15.0824 24.75 14.1254 24.75 13.0625C24.75 11.9996 25.0525 11.0413 25.4788 10.4418C25.9105 9.8395 26.3835 9.625 26.8125 9.625ZM10.3125 16.5C8.84125 16.5 7.55975 17.336 6.74575 18.4773C5.93175 19.6185 5.5 21.0925 5.5 22.6875C5.5 24.2825 5.93175 25.7579 6.74575 26.8991C7.55975 28.0404 8.84125 28.875 10.3125 28.875C11.7838 28.875 13.0652 28.039 13.8792 26.8978C14.6932 25.7565 15.125 24.2825 15.125 22.6875C15.125 21.0925 14.6932 19.6171 13.8792 18.4759C13.0652 17.3346 11.7838 16.5 10.3125 16.5ZM33.6875 16.5C32.2162 16.5 30.9347 17.336 30.1208 18.4773C29.3067 19.6185 28.875 21.0925 28.875 22.6875C28.875 24.2825 29.3067 25.7579 30.1208 26.8991C30.9347 28.0404 32.2162 28.875 33.6875 28.875C35.1588 28.875 36.4403 28.039 37.2542 26.8978C38.0682 25.7565 38.5 24.2825 38.5 22.6875C38.5 21.0925 38.0682 19.6171 37.2542 18.4759C36.4403 17.3346 35.1588 16.5 33.6875 16.5ZM10.3125 19.25C10.7415 19.25 11.2145 19.4645 11.6463 20.0668C12.0725 20.6676 12.375 21.6246 12.375 22.6875C12.375 23.7504 12.0725 24.7088 11.6463 25.3083C11.2145 25.9105 10.7415 26.125 10.3125 26.125C9.8835 26.125 9.4105 25.9105 8.97875 25.3083C8.5525 24.7088 8.25 23.7504 8.25 22.6875C8.25 21.6246 8.5525 20.6663 8.97875 20.0668C9.4105 19.4645 9.8835 19.25 10.3125 19.25ZM33.6875 19.25C34.1165 19.25 34.5895 19.4645 35.0212 20.0668C35.4475 20.6676 35.75 21.6246 35.75 22.6875C35.75 23.7504 35.4475 24.7088 35.0212 25.3083C34.5895 25.9105 34.1165 26.125 33.6875 26.125C33.2585 26.125 32.7855 25.9105 32.3538 25.3083C31.9275 24.7074 31.625 23.7504 31.625 22.6875C31.625 21.6246 31.9275 20.6663 32.3538 20.0668C32.7855 19.4645 33.2585 19.25 33.6875 19.25ZM22 22C20.1671 22 18.8884 23.1894 18.26 24.2344C17.6357 25.2794 17.2507 26.1484 16.885 26.5114C16.6746 26.7273 15.3478 27.2264 13.9645 27.9318C13.2729 28.2851 12.5757 28.7568 11.9886 29.4786C11.3974 30.2005 10.9986 31.1974 10.9986 32.3153C10.9986 34.9553 13.1711 37.1278 15.8111 37.1278C17.0019 37.1278 18.2449 36.7428 19.4618 36.399C20.6841 36.047 22 35.75 22 35.75C22 35.75 23.3159 36.047 24.5355 36.3963C25.7537 36.74 26.9967 37.125 28.1875 37.125C30.8275 37.125 33 34.9525 33 32.3125C33 31.2208 32.5971 30.2225 32.01 29.5213C31.4256 28.8159 30.7216 28.38 30.0355 28.0156C28.6605 27.2869 27.3089 26.7094 27.1136 26.5114C26.7836 26.1855 26.4124 25.2876 25.7799 24.2371C25.1488 23.1825 23.8425 22 22 22ZM22 24.75C22.9075 24.75 23.0079 24.97 23.4163 25.652C23.8288 26.3326 24.1368 27.489 25.135 28.4886C26.2694 29.6161 27.7021 29.8636 28.7458 30.4191C29.2682 30.6969 29.667 30.9925 29.9062 31.2785C30.1441 31.5631 30.25 31.823 30.25 32.3098C30.25 33.4648 29.3425 34.3723 28.1875 34.3723C27.7887 34.3723 26.5045 34.0698 25.3083 33.726C24.112 33.3864 23.122 32.9973 22 32.9973C20.878 32.9973 19.888 33.3864 18.6917 33.726C17.4955 34.0698 16.2113 34.3723 15.8125 34.3723C14.6575 34.3723 13.75 33.4648 13.75 32.3098C13.75 31.7556 13.8655 31.471 14.0938 31.1905C14.322 30.9114 14.7428 30.635 15.2542 30.3751C16.2773 29.8526 17.7017 29.6464 18.8636 28.4845C19.8715 27.4711 20.174 26.2776 20.5824 25.6039C20.9839 24.9301 21.0801 24.7445 21.9986 24.7445L22 24.75Z" fill="currentColor"/>
  </symbol>

  <symbol id="icon-calendar" viewBox="0 0 20 20" fill="none">
    <path d="M15.8333 3.33334H4.16667C3.24619 3.33334 2.5 4.07954 2.5 5.00001V16.6667C2.5 17.5872 3.24619 18.3333 4.16667 18.3333H15.8333C16.7538 18.3333 17.5 17.5872 17.5 16.6667V5.00001C17.5 4.07954 16.7538 3.33334 15.8333 3.33334Z" stroke="currentColor" stroke-width="1.8" stroke-linecap="round" stroke-linejoin="round"/>
    <path d="M13.3334 1.66666V4.99999" stroke="currentColor" stroke-width="1.8" stroke-linecap="round" stroke-linejoin="round"/>
    <path d="M6.66663 1.66666V4.99999" stroke="currentColor" stroke-width="1.8" stroke-linecap="round" stroke-linejoin="round"/>
    <path d="M2.5 8.33334H17.5" stroke="currentColor" stroke-width="1.8" stroke-linecap="round" stroke-linejoin="round"/>
  </symbol>

  <symbol id="icon-chevron-down" viewBox="0 0 24 24" fill="none">
    <path d="M6 9.75 12 15.75 18 9.75" stroke="currentColor" stroke-width="1.8" stroke-linecap="round" stroke-linejoin="round"/>
  </symbol>

  <symbol id="icon-upload-cloud" viewBox="0 0 18 18" fill="none">
    <path d="M12 12L9 9L6 12" stroke="currentColor" stroke-width="1.3" stroke-linecap="round" stroke-linejoin="round"/>
    <path d="M9 9V15.75" stroke="currentColor" stroke-width="1.3" stroke-linecap="round" stroke-linejoin="round"/>
    <path d="M15.2925 13.7925C16.024 13.3937 16.6018 12.7627 16.9349 11.999C17.2679 11.2353 17.3371 10.3824 17.1316 9.57502C16.9261 8.76761 16.4576 8.05164 15.8 7.54009C15.1424 7.02854 14.3331 6.75055 13.5 6.75H12.555C12.328 5.87193 11.9048 5.05675 11.3174 4.36575C10.73 3.67474 9.9936 3.12589 9.16354 2.76046C8.33348 2.39503 7.43138 2.22252 6.52505 2.25592C5.61873 2.28931 4.73177 2.52773 3.93085 2.95325C3.12993 3.37878 2.4359 3.98033 1.90094 4.71269C1.36597 5.44505 1.00399 6.28916 0.842205 7.18155C0.680423 8.07394 0.723049 8.9914 0.96688 9.86495C1.21071 10.7385 1.6494 11.5454 2.24997 12.225" stroke="currentColor" stroke-width="1.3" stroke-linecap="round" stroke-linejoin="round"/>
    <path d="M12 12L9 9L6 12" stroke="currentColor" stroke-width="1.3" stroke-linecap="round" stroke-linejoin="round"/>
  </symbol>

  <symbol id="icon-female" viewBox="0 0 24 24" fill="none">
    <circle cx="12" cy="8.5" r="4" stroke="currentColor" stroke-width="1.8"/>
    <path d="M12 12.5V20M9 17h6" stroke="currentColor" stroke-width="1.8" stroke-linecap="round"/>
  </symbol>

  <symbol id="icon-male" viewBox="0 0 24 24" fill="none">
    <path d="M12 11C9.23858 11 7 13.2386 7 16C7 18.7614 9.23858 21 12 21C14.7614 21 17 18.7614 17 16C17 13.2386 14.7614 11 12 11ZM12 11V3M12 3L16 7M12 3L8 7" stroke="currentColor" stroke-width="1.5" stroke-linecap="round" stroke-linejoin="round"/>
  </symbol>

  <symbol id="icon-multiple" viewBox="0 0 24 24" fill="none">
    <path fill-rule="evenodd" clip-rule="evenodd" d="M8.77074 7.74496C8.05311 7.46472 7.26305 7.42919 6.52317 7.64388C5.78328 7.85856 5.13495 8.31147 4.67878 8.9323C4.22261 9.55313 3.98411 10.3072 4.00031 11.0774C4.0165 11.8476 4.28647 12.591 4.76833 13.1921C5.25019 13.7932 5.91699 14.2185 6.66524 14.4019C7.41349 14.5853 8.20136 14.5166 8.90658 14.2064C9.61179 13.8963 10.1949 13.362 10.5655 12.6866C10.936 12.0111 11.0732 11.2323 10.9558 10.4709C10.9459 10.406 10.9488 10.3398 10.9644 10.276C10.98 10.2122 11.008 10.1522 11.0468 10.0993C11.0857 10.0463 11.1345 10.0016 11.1906 9.96751C11.2468 9.93347 11.309 9.91081 11.3739 9.90083C11.4388 9.89086 11.505 9.89376 11.5688 9.90937C11.6325 9.92498 11.6926 9.95299 11.7455 9.99182C11.7985 10.0306 11.8432 10.0795 11.8773 10.1356C11.9113 10.1918 11.934 10.254 11.9439 10.3189C12.0947 11.2978 11.9181 12.2992 11.4416 13.1675C10.9651 14.0358 10.2153 14.7226 9.30862 15.1212C8.40192 15.5199 7.38899 15.6081 6.42701 15.3723C5.46503 15.1364 4.6078 14.5896 3.98833 13.8168C3.36886 13.0439 3.0218 12.0882 3.00099 11.098C2.98019 10.1077 3.28681 9.13827 3.87327 8.34009C4.45974 7.54191 5.29325 6.95961 6.24448 6.68355C7.1957 6.4075 8.21144 6.45312 9.13409 6.81334C9.19607 6.83658 9.25281 6.8719 9.30102 6.91725C9.34923 6.96261 9.38796 7.01708 9.41495 7.07752C9.44194 7.13796 9.45665 7.20316 9.45824 7.26933C9.45982 7.33551 9.44825 7.40133 9.42418 7.463C9.40012 7.52466 9.36405 7.58093 9.31806 7.62854C9.27208 7.67615 9.21709 7.71414 9.1563 7.74033C9.09551 7.76652 9.03012 7.78036 8.96393 7.78107C8.89775 7.78178 8.83208 7.76984 8.77074 7.74496Z" fill="currentColor"/>
    <path fill-rule="evenodd" clip-rule="evenodd" d="M6.99841 19.5002V15.5018C6.99841 15.3693 7.05107 15.2421 7.1448 15.1484C7.23853 15.0547 7.36566 15.002 7.49821 15.002C7.63076 15.002 7.75789 15.0547 7.85162 15.1484C7.94535 15.2421 7.99801 15.3693 7.99801 15.5018V19.5002C7.99801 19.6327 7.94535 19.7599 7.85162 19.8536C7.75789 19.9473 7.63076 20 7.49821 20C7.36566 20 7.23853 19.9473 7.1448 19.8536C7.05107 19.7599 6.99841 19.6327 6.99841 19.5002Z" fill="currentColor"/>
    <path fill-rule="evenodd" clip-rule="evenodd" d="M5.49902 17.0012C5.49902 16.8687 5.55168 16.7416 5.64541 16.6478C5.73914 16.5541 5.86627 16.5014 5.99882 16.5014H8.9976C9.13016 16.5014 9.25728 16.5541 9.35101 16.6478C9.44474 16.7416 9.4974 16.8687 9.4974 17.0012C9.4974 17.1338 9.44474 17.2609 9.35101 17.3546C9.25728 17.4484 9.13016 17.501 8.9976 17.501H5.99882C5.86627 17.501 5.73914 17.4484 5.64541 17.3546C5.55168 17.2609 5.49902 17.1338 5.49902 17.0012ZM14.4464 7.63654C13.8925 7.48018 13.3086 7.46287 12.7464 7.58615C12.1843 7.70944 11.6612 7.9695 11.2236 8.3433C10.786 8.7171 10.4473 9.19309 10.2377 9.72908C10.028 10.2651 9.95383 10.8445 10.0217 11.416C10.0298 11.4814 10.0249 11.5477 10.0073 11.6111C9.98972 11.6746 9.95975 11.7339 9.91914 11.7858C9.87853 11.8376 9.82808 11.8809 9.77068 11.9132C9.71328 11.9455 9.65006 11.9661 9.58467 11.9739C9.51928 11.9816 9.45299 11.9764 9.38963 11.9585C9.32626 11.9406 9.26707 11.9103 9.21544 11.8694C9.16381 11.8285 9.12077 11.7778 9.08879 11.7203C9.05681 11.6627 9.03652 11.5994 9.02909 11.534C8.91232 10.5504 9.12346 9.55575 9.62975 8.70443C10.136 7.85311 10.9092 7.1927 11.8292 6.82568C12.7491 6.45867 13.7645 6.40557 14.7178 6.67463C15.671 6.9437 16.5088 7.51987 17.1011 8.31374C17.6935 9.10761 18.0072 10.0748 17.9936 11.0652C17.9801 12.0556 17.64 13.0138 17.0262 13.7912C16.4124 14.5686 15.5592 15.1216 14.5989 15.3645C13.6387 15.6074 12.6251 15.5265 11.7155 15.1345C11.6552 15.1085 11.6006 15.071 11.5549 15.0239C11.5091 14.9769 11.4731 14.9212 11.4488 14.8603C11.3998 14.7371 11.4017 14.5995 11.4541 14.4778C11.5065 14.356 11.6052 14.2601 11.7283 14.2111C11.8515 14.162 11.9891 14.1639 12.1108 14.2164C12.5506 14.4058 13.0245 14.503 13.5033 14.5019C13.9821 14.5008 14.4556 14.4014 14.8944 14.2099C15.3332 14.0184 15.7281 13.7389 16.0546 13.3887C16.381 13.0384 16.6321 12.6249 16.7922 12.1736C16.9524 11.7224 17.0182 11.2431 16.9857 10.7654C16.9531 10.2877 16.8229 9.82182 16.603 9.39651C16.3831 8.97119 16.0782 8.59554 15.7072 8.29281C15.3363 7.99008 14.9072 7.76672 14.4464 7.63654Z" fill="currentColor"/>
    <path fill-rule="evenodd" clip-rule="evenodd" d="M16.3911 8.60814C16.2974 8.51441 16.2448 8.38731 16.2448 8.25478C16.2448 8.12225 16.2974 7.99515 16.3911 7.90143L20.1396 4.15295C20.1857 4.10521 20.2408 4.06714 20.3018 4.04094C20.3628 4.01475 20.4284 4.00096 20.4947 4.00039C20.5611 3.99981 20.6269 4.01245 20.6883 4.03758C20.7497 4.06271 20.8055 4.09983 20.8525 4.14675C20.8994 4.19368 20.9365 4.24948 20.9616 4.31091C20.9868 4.37233 20.9994 4.43814 20.9988 4.50451C20.9983 4.57087 20.9845 4.63645 20.9583 4.69743C20.9321 4.75841 20.894 4.81356 20.8463 4.85966L17.0978 8.60814C17.0041 8.70184 16.877 8.75447 16.7444 8.75447C16.6119 8.75447 16.4848 8.70184 16.3911 8.60814Z" fill="currentColor"/>
    <path fill-rule="evenodd" clip-rule="evenodd" d="M20.4549 7.50508C20.3892 7.50423 20.3244 7.49046 20.2641 7.46456C20.2038 7.43865 20.1491 7.40112 20.1033 7.35411C20.0575 7.30709 20.0214 7.25151 19.9971 7.19055C19.9728 7.12958 19.9607 7.06442 19.9616 6.99878L19.9865 5.01259L18.0004 5.03758C17.8678 5.0393 17.74 4.9883 17.645 4.89579C17.5501 4.80327 17.4958 4.67683 17.4941 4.54428C17.4923 4.41172 17.5433 4.28391 17.6359 4.18897C17.7284 4.09402 17.8548 4.03971 17.9874 4.03798L20.9991 4L20.9612 7.01178C20.9603 7.07741 20.9465 7.14224 20.9206 7.20255C20.8947 7.26287 20.8572 7.31749 20.8102 7.3633C20.7632 7.4091 20.7076 7.4452 20.6466 7.46953C20.5857 7.49386 20.5205 7.50594 20.4549 7.50508Z" fill="currentColor"/>
  </symbol>

</svg>
